<svg width="16" height="19" viewBox="0 0 16 19" fill="none" xmlns="http://www.w3.org/2000/svg">
<path d="M8 1L8.53033 0.46967C8.38968 0.329018 8.19891 0.25 8 0.25C7.80109 0.25 7.61032 0.329018 7.46967 0.46967L8 1ZM0.999996 8L0.469666 7.46967C0.329014 7.61032 0.249996 7.80109 0.249996 8L0.999996 8ZM15 8L15.75 8C15.75 7.80109 15.671 7.61032 15.5303 7.46967L15 8ZM15 18V18.75C15.1989 18.75 15.3897 18.671 15.5303 18.5303C15.671 18.3897 15.75 18.1989 15.75 18H15ZM1 18H0.250001C0.250001 18.4142 0.585787 18.75 1 18.75V18ZM7.46967 0.46967L0.469666 7.46967L1.53033 8.53033L8.53033 1.53033L7.46967 0.46967ZM15.5303 7.46967L8.53033 0.46967L7.46967 1.53033L14.4697 8.53033L15.5303 7.46967ZM14.25 8L14.25 18H15.75L15.75 8L14.25 8ZM15 17.25H1V18.75H15V17.25ZM1.75 18L1.75 8L0.249996 8L0.250001 18H1.75Z" fill="#001A72"/>
</svg>
