<svg width="20" height="20" viewBox="0 0 20 20" fill="none" xmlns="http://www.w3.org/2000/svg">
<path d="M1.75 1C1.75 0.585786 1.41421 0.25 1 0.25C0.585786 0.25 0.25 0.585786 0.25 1H1.75ZM1 7H0.25C0.25 7.41421 0.585786 7.75 1 7.75L1 7ZM7 7.75C7.41421 7.75 7.75 7.41421 7.75 7C7.75 6.58579 7.41421 6.25 7 6.25V7.75ZM17.5294 7.6283C17.6987 8.00634 18.1424 8.17556 18.5205 8.00626C18.8985 7.83697 19.0677 7.39326 18.8984 7.01523L17.5294 7.6283ZM14.3539 3.12343L14.7167 2.46704L14.3539 3.12343ZM8.74532 2.08779L8.84981 2.83047L8.74532 2.08779ZM18.25 19C18.25 19.4142 18.5858 19.75 19 19.75C19.4142 19.75 19.75 19.4142 19.75 19H18.25ZM19 13H19.75C19.75 12.5858 19.4142 12.25 19 12.25V13ZM13 12.25C12.5858 12.25 12.25 12.5858 12.25 13C12.25 13.4142 12.5858 13.75 13 13.75V12.25ZM2.47054 12.3717C2.30124 11.9937 1.85754 11.8245 1.4795 11.9937C1.10147 12.163 0.932249 12.6067 1.10155 12.9848L2.47054 12.3717ZM11.2547 17.9122L11.3591 18.6549L11.2547 17.9122ZM0.25 1V7H1.75V1H0.25ZM1 7.75H7V6.25H1V7.75ZM18.8984 7.01523C18.0344 5.08596 16.5668 3.48973 14.7167 2.46704L13.991 3.77983C15.5565 4.64519 16.7984 5.99586 17.5294 7.6283L18.8984 7.01523ZM14.7167 2.46704C12.8666 1.44435 10.7342 1.0506 8.64084 1.3451L8.84981 2.83047C10.6212 2.58127 12.4255 2.91446 13.991 3.77983L14.7167 2.46704ZM8.64084 1.3451C5.0935 1.84416 2.73416 4.4361 0.499086 6.4418L1.50091 7.5582C3.92072 5.38671 5.87224 3.24937 8.84981 2.83047L8.64084 1.3451ZM19.75 19V13H18.25V19H19.75ZM19 12.25H13V13.75H19V12.25ZM1.10155 12.9848C1.96553 14.914 3.43315 16.5103 5.28327 17.533L6.00894 16.2202C4.44343 15.3548 3.2016 14.0042 2.47054 12.3717L1.10155 12.9848ZM5.28327 17.533C7.13338 18.5557 9.26577 18.9494 11.3591 18.6549L11.1502 17.1695C9.37881 17.4187 7.57445 17.0856 6.00894 16.2202L5.28327 17.533ZM11.3591 18.6549C14.9065 18.1559 17.2658 15.5639 19.5009 13.5582L18.4991 12.4418C16.0793 14.6133 14.1277 16.7506 11.1502 17.1695L11.3591 18.6549Z" fill="#001A72"/>
</svg>
