<svg width="26" height="31" viewBox="0 0 26 31" fill="none" xmlns="http://www.w3.org/2000/svg">
<path d="M19.4222 1.76209C19.1724 0.848172 19.0475 0.391215 18.6638 0.188831C18.28 -0.0135528 17.8553 0.133543 17.0059 0.427735C14.4807 1.30233 12.1078 2.56288 9.97658 4.16617C7.31988 6.16476 5.09071 8.6568 3.41635 11.5C1.742 14.3432 0.65525 17.4819 0.218156 20.7368C-0.130992 23.3369 -0.0601523 25.9704 0.424239 28.5413C0.590342 29.4228 0.673394 29.8636 1.04111 30.0961C1.40883 30.3286 1.86729 30.2082 2.7842 29.9673L23.5464 24.5132C24.4665 24.2715 24.9266 24.1506 25.1352 23.7894C25.3437 23.4281 25.2183 22.9693 24.9675 22.0516L19.4222 1.76209Z" fill="#FF0000"/>
</svg>
