<svg width="35" height="35" viewBox="0 0 35 35" fill="none" xmlns="http://www.w3.org/2000/svg">
<path fill-rule="evenodd" clip-rule="evenodd" d="M17.4375 34.875C7.80703 34.875 0 27.068 0 17.4375C0 7.80703 7.80703 0 17.4375 0C27.068 0 34.875 7.80703 34.875 17.4375C34.875 27.068 27.068 34.875 17.4375 34.875ZM17.4375 8.6875C16.8852 8.6875 16.4375 9.13521 16.4375 9.6875C16.4375 10.2398 16.8852 10.6875 17.4375 10.6875H17.4569C18.0092 10.6875 18.4569 10.2398 18.4569 9.6875C18.4569 9.13521 18.0092 8.6875 17.4569 8.6875H17.4375ZM14.5312 16.4375C13.979 16.4375 13.5312 16.8852 13.5312 17.4375C13.5312 17.9898 13.979 18.4375 14.5312 18.4375H16.4375V25.1875C16.4375 25.7398 16.8852 26.1875 17.4375 26.1875H21.3125C21.8648 26.1875 22.3125 25.7398 22.3125 25.1875C22.3125 24.6352 21.8648 24.1875 21.3125 24.1875H18.4375V17.4375C18.4375 16.8852 17.9898 16.4375 17.4375 16.4375H14.5312Z" fill="#FF0000"/>
</svg>
