<svg width="35" height="37" viewBox="0 0 35 37" fill="none" xmlns="http://www.w3.org/2000/svg">
<path d="M31.4824 1.52764C31.3042 0.794298 31.215 0.427626 30.943 0.213813C30.671 0 30.2937 0 29.539 0H5.46101C4.70631 0 4.32897 0 4.05696 0.213813C3.78495 0.427626 3.69583 0.794298 3.51759 1.52764L0.600922 13.5276C0.324108 14.6665 0.185699 15.236 0.485985 15.618C0.786266 16 1.37229 16 2.54434 16H4.37375C5.99897 16 6.81158 16 7.37195 15.5231C7.93232 15.0462 8.0623 14.2441 8.32225 12.6398L8.55257 11.2184C8.62746 10.7563 8.6649 10.5252 8.75 10.5252C8.8351 10.5252 8.87254 10.7563 8.94742 11.2184L9.17794 12.641C9.4377 14.2441 9.56758 15.0457 10.1273 15.5225C10.1278 15.5229 10.1283 15.5233 10.1288 15.5238C10.689 16 11.501 16 13.125 16C14.749 16 15.561 16 16.1212 15.5238C16.1217 15.5233 16.1222 15.5229 16.1227 15.5225C16.6824 15.0457 16.8123 14.2441 17.0721 12.641L17.3026 11.2184C17.3775 10.7563 17.4149 10.5252 17.5 10.5252C17.5851 10.5252 17.6225 10.7563 17.6974 11.2184L17.9279 12.641C18.1877 14.2441 18.3176 15.0457 18.8773 15.5225C18.8778 15.5229 18.8783 15.5233 18.8788 15.5238C19.439 16 20.251 16 21.875 16C23.499 16 24.311 16 24.8712 15.5238C24.8717 15.5233 24.8722 15.5229 24.8727 15.5225C25.4324 15.0457 25.5623 14.2441 25.8221 12.641L26.0526 11.2184C26.1275 10.7563 26.1649 10.5252 26.25 10.5252C26.3351 10.5252 26.3725 10.7563 26.4474 11.2184L26.6777 12.6398C26.9377 14.2441 27.0677 15.0462 27.628 15.5231C28.1884 16 29.001 16 30.6262 16H32.4557C33.6277 16 34.2137 16 34.514 15.618C34.8143 15.236 34.6759 14.6665 34.3991 13.5276L31.4824 1.52764Z" fill="#A40000"/>
<path fill-rule="evenodd" clip-rule="evenodd" d="M31.0697 17.0815C31.0703 17.2578 31.0703 17.4436 31.0703 17.6396V34.942C31.0703 35.8848 31.0703 36.3562 30.7774 36.6491C30.4845 36.942 30.0131 36.942 29.0703 36.942H21.3612V28.2325C21.3612 27.6802 20.9135 27.2325 20.3612 27.2325H14.5938C14.0415 27.2325 13.5938 27.6802 13.5938 28.2325V36.942H5.88429C4.94148 36.942 4.47008 36.942 4.17718 36.6491C3.88429 36.3562 3.88429 35.8848 3.88429 34.942V17.6396C3.88429 17.4436 3.88429 17.2578 3.88495 17.0815H4.37954L4.45934 17.0816H4.45936C5.19965 17.0816 5.88741 17.0817 6.45595 17.0107C7.08642 16.932 7.75003 16.7486 8.33611 16.2521C8.48957 16.1221 8.62274 15.9833 8.73898 15.8383C8.85521 15.9833 8.98838 16.1221 9.14185 16.2521C9.72877 16.7493 10.394 16.9323 11.0251 17.0108C11.5949 17.0817 12.2848 17.0816 13.0284 17.0816L13.1082 17.0815L13.1879 17.0816C13.9315 17.0816 14.6214 17.0817 15.1912 17.0108C15.8223 16.9323 16.4875 16.7493 17.0745 16.2521C17.2279 16.1221 17.3611 15.9833 17.4773 15.8383C17.5936 15.9833 17.7267 16.1221 17.8802 16.2521C18.4671 16.7493 19.1324 16.9323 19.7634 17.0108C20.3333 17.0817 21.0232 17.0816 21.7668 17.0816L21.8465 17.0815L21.9263 17.0816C22.6699 17.0816 23.3598 17.0817 23.9296 17.0108C24.5606 16.9323 25.2259 16.7493 25.8128 16.2521C25.9663 16.1221 26.0995 15.9833 26.2157 15.8383C26.3319 15.9833 26.4651 16.1221 26.6186 16.2521C27.2047 16.7486 27.8683 16.932 28.4987 17.0107C29.0673 17.0817 29.755 17.0816 30.4953 17.0816H30.4954L30.5751 17.0815H31.0697ZM30.3177 14.0814C29.6239 14.0805 29.1924 14.0741 28.8704 14.0339C28.7068 14.0134 28.6233 13.9894 28.5846 13.9751C28.5669 13.9685 28.5597 13.9644 28.5588 13.9639L28.5577 13.9631L28.5567 13.9621C28.5561 13.9613 28.5508 13.9548 28.5414 13.9385C28.5209 13.9027 28.4835 13.8242 28.4365 13.6662C28.4351 13.6616 28.4337 13.6568 28.4323 13.6521C29.3242 13.6805 29.9031 13.774 30.3177 14.0814ZM24.0028 13.6396C24.0002 13.6486 23.9976 13.6575 23.995 13.6662C23.9479 13.8242 23.9105 13.9027 23.89 13.9385C23.8806 13.9548 23.8753 13.9613 23.8747 13.9621L23.8737 13.9631C23.873 13.9636 23.8735 13.9633 23.8731 13.9635C23.8724 13.9639 23.8651 13.9681 23.8472 13.9747C23.8081 13.9892 23.7238 14.0133 23.5592 14.0338C23.1971 14.0788 22.6974 14.0815 21.8465 14.0815C20.9957 14.0815 20.496 14.0788 20.1339 14.0338C19.9692 14.0133 19.885 13.9892 19.8458 13.9747C19.828 13.9681 19.8206 13.9639 19.8199 13.9635C19.8197 13.9634 19.8197 13.9634 19.8197 13.9634L19.8193 13.9631L19.8183 13.9621C19.8177 13.9613 19.8124 13.9548 19.803 13.9385C19.7825 13.9027 19.7451 13.8242 19.6981 13.6662C19.6955 13.6575 19.6929 13.6486 19.6903 13.6396H24.0028ZM15.2644 13.6396C15.2618 13.6486 15.2592 13.6575 15.2566 13.6662C15.2096 13.8242 15.1722 13.9027 15.1516 13.9385C15.1437 13.9524 15.1386 13.9592 15.1369 13.9614L15.1364 13.9621L15.1353 13.9631L15.135 13.9634C15.1349 13.9634 15.1349 13.9634 15.1348 13.9635C15.134 13.9639 15.1267 13.9681 15.1088 13.9747C15.0697 13.9892 14.9855 14.0133 14.8208 14.0338C14.4587 14.0788 13.959 14.0815 13.1082 14.0815C12.2573 14.0815 11.7576 14.0788 11.3955 14.0338C11.2308 14.0133 11.1466 13.9892 11.1075 13.9747C11.0896 13.9681 11.0823 13.9639 11.0815 13.9635C11.0814 13.9634 11.0814 13.9634 11.0814 13.9634C11.0814 13.9634 11.0813 13.9634 11.081 13.9631L11.08 13.9621C11.0794 13.9613 11.074 13.9548 11.0647 13.9385C11.0442 13.9027 11.0068 13.8242 10.9597 13.6662C10.9571 13.6575 10.9545 13.6486 10.9519 13.6396H15.2644ZM6.52241 13.6521C5.63039 13.6805 5.05149 13.774 4.6369 14.0814C5.33078 14.0805 5.76223 14.0741 6.08428 14.0339C6.24784 14.0134 6.33135 13.9894 6.37006 13.9751C6.38774 13.9685 6.39502 13.9644 6.39584 13.9639L6.39698 13.9631L6.39799 13.9621C6.39859 13.9613 6.40391 13.9548 6.41328 13.9385C6.4338 13.9027 6.47119 13.8242 6.51823 13.6662C6.51963 13.6616 6.52102 13.6568 6.52241 13.6521ZM19.3612 36.942H15.5938V29.2325H19.3612V36.942Z" fill="#A40000"/>
</svg>
