<svg width="16" height="20" viewBox="0 0 16 20" fill="none" xmlns="http://www.w3.org/2000/svg">
<path d="M1 19H0.25C0.25 19.4142 0.585786 19.75 1 19.75L1 19ZM15 19V19.75C15.4142 19.75 15.75 19.4142 15.75 19H15ZM15 9H15.75C15.75 8.58579 15.4142 8.25 15 8.25V9ZM1 9V8.25C0.585786 8.25 0.25 8.58579 0.25 9H1ZM4.75 9V5H3.25V9H4.75ZM4.75 5C4.75 4.45335 4.92016 3.61668 5.40865 2.93823C5.8696 2.29802 6.64444 1.75 8 1.75V0.25C6.15556 0.25 4.9304 1.03532 4.19135 2.06177C3.47984 3.04998 3.25 4.21332 3.25 5H4.75ZM8 1.75C9.35556 1.75 10.1304 2.29802 10.5913 2.93823C11.0798 3.61668 11.25 4.45335 11.25 5H12.75C12.75 4.21332 12.5202 3.04998 11.8087 2.06177C11.0696 1.03532 9.84444 0.25 8 0.25V1.75ZM11.25 5V9H12.75V5H11.25ZM1 19.75H15V18.25H1V19.75ZM15.75 19V9H14.25V19H15.75ZM0.25 9V19H1.75V9H0.25ZM4 8.25H1V9.75H4V8.25ZM15 8.25H12V9.75H15V8.25ZM12 8.25H4V9.75H12V8.25Z" fill="#001A72"/>
</svg>
