<svg width="41" height="42" viewBox="0 0 41 42" fill="none" xmlns="http://www.w3.org/2000/svg">
<path fill-rule="evenodd" clip-rule="evenodd" d="M13.7453 1.95669C5.88354 4.70467 0.244141 12.1869 0.244141 20.9862C0.244141 22.2692 0.364031 23.5242 0.593219 24.7406L18.5602 19.9264L13.7453 1.95669ZM16.6435 1.18198L21.5874 19.6329L21.5991 19.6763C21.6491 19.862 21.7196 20.1239 21.7506 20.3641C21.7896 20.6668 21.7987 21.1456 21.517 21.6335C21.2353 22.1214 20.8161 22.3528 20.5345 22.4704C20.311 22.5637 20.049 22.6336 19.8631 22.6831L19.8631 22.6831L19.8197 22.6947L1.36801 27.6389C4.11615 35.5003 11.5982 41.1395 20.3974 41.1395C31.5277 41.1395 40.5506 32.1166 40.5506 20.9862C40.5506 9.85591 31.5277 0.833008 20.3974 0.833008C19.1146 0.833008 17.8598 0.952861 16.6435 1.18198Z" fill="#222222"/>
</svg>
